# xmcd CD database file
#
# Track frame offsets:
#	150
#	15117
#	46301
#	74412
#	94664
#	111903
#	132236
#	153894
#	181806
#	211998
#	243009
#	263280
#
# Disc length: 3754 seconds
#
# Revision: 0
# Processed by: cddbd v1.5.2PL0 Copyright (c) Steve Scherf et al.
# Submitted via: CDex 1.70beta2
#
DISCID=8b0ea80c
DTITLE=Camilleri, Andrea - Die Spur des Fuchses
DYEAR=2010
DGENRE=Hoerbuch
TTITLE0=23 Die Spur des Fuchses
TTITLE1=24 Die Spur des Fuchses
TTITLE2=25 Die Spur des Fuchses
TTITLE3=26 Die Spur des Fuchses
TTITLE4=27 Die Spur des Fuchses
TTITLE5=28 Die Spur des Fuchses
TTITLE6=29 Die Spur des Fuchses
TTITLE7=30 Die Spur des Fuchses
TTITLE8=31 Die Spur des Fuchses
TTITLE9=32 Die Spur des Fuchses
TTITLE10=33 Die Spur des Fuchses
TTITLE11=34 Die Spur des Fuchses
EXTD=YEAR: 2010
EXTT0=
EXTT1=
EXTT2=
EXTT3=
EXTT4=
EXTT5=
EXTT6=
EXTT7=
EXTT8=
EXTT9=
EXTT10=
EXTT11=
PLAYORDER=
